<svg width="1035" height="310" viewBox="0 0 1035 310" fill="none" xmlns="http://www.w3.org/2000/svg">
<path d="M399.878 279.417C392.447 279.417 385.818 278.361 379.991 276.25C374.164 274.139 369.224 271.226 365.171 267.51C361.118 263.795 358.036 259.488 355.924 254.59C353.813 249.692 352.758 244.457 352.758 238.884C352.758 232.719 353.982 227.104 356.431 222.037C358.88 216.97 362.342 212.621 366.818 208.99C371.293 205.275 376.529 202.404 382.524 200.377C388.52 198.35 395.064 197.337 402.158 197.337C406.127 197.337 410.138 197.632 414.191 198.224C418.244 198.815 421.538 199.659 424.071 200.757C425 201.095 425.507 201.39 425.591 201.644C425.76 201.812 425.887 202.488 425.971 203.67L427.618 221.277C427.618 221.53 427.407 221.699 426.984 221.784C426.562 221.868 426.267 221.741 426.098 221.404C425.507 219.799 424.451 217.815 422.931 215.45C421.496 213.001 419.596 210.637 417.231 208.357C414.867 205.992 412.038 204.008 408.744 202.404C405.451 200.799 401.651 199.997 397.344 199.997C391.94 199.997 387 201.475 382.524 204.43C378.133 207.301 374.629 211.439 372.011 216.844C369.393 222.248 368.084 228.708 368.084 236.224C368.084 242.304 368.929 247.835 370.618 252.817C372.391 257.799 374.84 262.148 377.964 265.864C381.173 269.495 384.889 272.324 389.111 274.35C393.333 276.292 397.978 277.264 403.044 277.264C406.253 277.264 408.829 276.884 410.771 276.124C412.713 275.364 414.107 273.886 414.951 271.69C415.88 269.495 416.344 266.244 416.344 261.937C416.344 257.884 416.091 254.928 415.584 253.07C415.162 251.128 414.064 249.861 412.291 249.27C410.518 248.679 407.647 248.384 403.678 248.384C403.171 248.384 402.918 248.046 402.918 247.37C402.918 246.695 403.129 246.357 403.551 246.357C409.462 246.695 414.782 246.906 419.511 246.99C424.24 246.99 429.222 246.864 434.458 246.61C434.796 246.61 434.964 246.906 434.964 247.497C435.049 248.088 434.88 248.384 434.458 248.384C433.022 248.299 431.967 248.595 431.291 249.27C430.616 249.861 430.193 251.212 430.024 253.324C429.856 255.435 429.771 258.728 429.771 263.204C429.771 265.99 429.856 268.059 430.024 269.41C430.193 270.761 430.32 271.775 430.404 272.45C430.573 273.041 430.658 273.675 430.658 274.35C430.658 274.857 430.573 275.195 430.404 275.364C430.236 275.532 429.856 275.701 429.264 275.87C424.62 276.884 419.722 277.728 414.571 278.404C409.504 279.079 404.607 279.417 399.878 279.417ZM503.278 277.897C502.011 277.897 499.942 276.335 497.071 273.21C494.285 270.001 490.907 265.399 486.938 259.404C482.969 253.408 478.493 246.23 473.511 237.87L485.165 234.324C491.92 244.541 497.662 252.732 502.391 258.897C507.204 265.061 511.469 269.537 515.184 272.324C518.9 275.026 522.447 276.377 525.824 276.377C525.993 276.377 526.078 276.63 526.078 277.137C526.078 277.644 525.993 277.897 525.824 277.897C519.913 277.897 515.1 277.897 511.385 277.897C507.669 277.897 504.967 277.897 503.278 277.897ZM476.045 198.35C483.813 198.35 489.767 199.786 493.905 202.657C498.127 205.444 500.238 209.37 500.238 214.437C500.238 219.419 498.845 223.852 496.058 227.737C493.271 231.537 489.682 234.492 485.291 236.604C480.985 238.715 476.425 239.77 471.611 239.77C470.429 239.77 469.205 239.77 467.938 239.77C466.756 239.77 465.658 239.728 464.645 239.644V267.637C464.645 270.086 464.856 271.944 465.278 273.21C465.7 274.477 466.545 275.321 467.811 275.744C469.078 276.166 471.02 276.377 473.638 276.377C473.807 276.377 473.891 276.63 473.891 277.137C473.891 277.644 473.807 277.897 473.638 277.897C471.442 277.897 468.993 277.855 466.291 277.77C463.589 277.686 460.633 277.644 457.425 277.644C454.385 277.644 451.471 277.686 448.685 277.77C445.982 277.855 443.533 277.897 441.338 277.897C441.085 277.897 440.958 277.644 440.958 277.137C440.958 276.63 441.085 276.377 441.338 276.377C443.956 276.377 445.898 276.166 447.165 275.744C448.431 275.321 449.276 274.477 449.698 273.21C450.205 271.944 450.458 270.086 450.458 267.637V208.99C450.458 206.541 450.247 204.726 449.825 203.544C449.402 202.277 448.558 201.432 447.291 201.01C446.025 200.504 444.082 200.25 441.465 200.25C441.296 200.25 441.211 199.997 441.211 199.49C441.211 198.984 441.296 198.73 441.465 198.73C443.66 198.73 446.109 198.815 448.811 198.984C451.513 199.068 454.385 199.11 457.425 199.11C460.211 199.11 463.251 198.984 466.545 198.73C469.922 198.477 473.089 198.35 476.045 198.35ZM485.798 219.25C485.798 214.268 485.291 210.468 484.278 207.85C483.265 205.232 481.871 203.459 480.098 202.53C478.325 201.517 476.298 201.01 474.018 201.01C470.64 201.01 468.233 201.644 466.798 202.91C465.362 204.177 464.645 206.288 464.645 209.244V236.097C465.827 236.266 467.093 236.392 468.445 236.477C469.796 236.561 470.978 236.604 471.991 236.604C476.973 236.604 480.52 235.252 482.631 232.55C484.742 229.764 485.798 225.33 485.798 219.25ZM561.964 279.417C555.884 279.417 550.353 278.361 545.371 276.25C540.473 274.055 536.251 271.057 532.704 267.257C529.242 263.457 526.54 259.108 524.598 254.21C522.74 249.228 521.811 243.95 521.811 238.377C521.811 231.537 523.12 225.541 525.738 220.39C528.44 215.239 531.987 210.975 536.378 207.597C540.769 204.135 545.582 201.559 550.818 199.87C556.053 198.181 561.247 197.337 566.398 197.337C572.647 197.337 578.22 198.477 583.118 200.757C588.1 202.952 592.322 205.95 595.784 209.75C599.247 213.55 601.864 217.857 603.638 222.67C605.495 227.484 606.424 232.424 606.424 237.49C606.424 243.401 605.242 248.89 602.878 253.957C600.513 259.024 597.262 263.457 593.124 267.257C589.071 271.057 584.342 274.055 578.938 276.25C573.618 278.361 567.96 279.417 561.964 279.417ZM566.144 276.25C570.873 276.25 575.095 274.899 578.811 272.197C582.527 269.495 585.44 265.526 587.551 260.29C589.747 255.055 590.844 248.679 590.844 241.164C590.844 233.395 589.662 226.47 587.298 220.39C584.933 214.31 581.555 209.539 577.164 206.077C572.773 202.53 567.495 200.757 561.331 200.757C553.647 200.757 547.735 203.67 543.598 209.497C539.46 215.324 537.391 223.388 537.391 233.69C537.391 239.855 538.109 245.555 539.544 250.79C540.98 255.941 542.964 260.459 545.498 264.344C548.115 268.144 551.155 271.099 554.618 273.21C558.164 275.237 562.007 276.25 566.144 276.25ZM681.958 214.944C681.958 210.468 680.902 206.921 678.791 204.304C676.764 201.601 673.893 200.25 670.178 200.25C670.009 200.25 669.924 199.997 669.924 199.49C669.924 198.984 670.009 198.73 670.178 198.73C672.289 198.73 674.442 198.815 676.638 198.984C678.918 199.068 681.367 199.11 683.984 199.11C686.264 199.11 688.502 199.068 690.698 198.984C692.893 198.815 694.92 198.73 696.778 198.73C696.947 198.73 697.031 198.984 697.031 199.49C697.031 199.997 696.947 200.25 696.778 200.25C693.4 200.25 690.782 201.601 688.924 204.304C687.151 206.921 686.264 210.468 686.264 214.944V250.157C686.264 256.152 684.955 261.388 682.338 265.864C679.72 270.255 676.047 273.675 671.318 276.124C666.589 278.488 661.058 279.67 654.724 279.67C648.56 279.67 643.029 278.488 638.131 276.124C633.318 273.759 629.518 270.381 626.731 265.99C624.029 261.515 622.678 256.152 622.678 249.904V208.99C622.678 206.541 622.467 204.726 622.044 203.544C621.622 202.277 620.736 201.432 619.384 201.01C618.118 200.504 616.218 200.25 613.684 200.25C613.431 200.25 613.304 199.997 613.304 199.49C613.304 198.984 613.431 198.73 613.684 198.73C615.88 198.73 618.329 198.815 621.031 198.984C623.733 199.068 626.604 199.11 629.644 199.11C632.853 199.11 635.809 199.068 638.511 198.984C641.213 198.815 643.62 198.73 645.731 198.73C645.984 198.73 646.111 198.984 646.111 199.49C646.111 199.997 645.984 200.25 645.731 200.25C643.198 200.25 641.298 200.504 640.031 201.01C638.764 201.517 637.878 202.404 637.371 203.67C636.949 204.937 636.738 206.795 636.738 209.244V245.47C636.738 255.857 638.807 263.372 642.944 268.017C647.082 272.661 652.613 274.984 659.538 274.984C666.547 274.984 672.035 272.872 676.004 268.65C679.973 264.344 681.958 258.221 681.958 250.284V214.944ZM723.038 267.13C723.038 269.664 723.291 271.606 723.798 272.957C724.389 274.224 725.571 275.11 727.344 275.617C729.118 276.124 731.735 276.377 735.198 276.377C735.451 276.377 735.578 276.63 735.578 277.137C735.578 277.644 735.451 277.897 735.198 277.897C732.495 277.897 729.54 277.855 726.331 277.77C723.206 277.686 719.786 277.644 716.071 277.644C713.031 277.644 710.118 277.686 707.331 277.77C704.629 277.855 702.18 277.897 699.984 277.897C699.731 277.897 699.604 277.644 699.604 277.137C699.604 276.63 699.731 276.377 699.984 276.377C702.602 276.377 704.544 276.166 705.811 275.744C707.078 275.321 707.922 274.477 708.344 273.21C708.766 271.944 708.978 270.086 708.978 267.637V208.99C708.978 206.541 708.766 204.726 708.344 203.544C707.922 202.277 707.078 201.432 705.811 201.01C704.544 200.504 702.602 200.25 699.984 200.25C699.731 200.25 699.604 199.997 699.604 199.49C699.604 198.984 699.731 198.73 699.984 198.73C702.18 198.73 704.629 198.815 707.331 198.984C710.033 199.068 712.904 199.11 715.944 199.11C717.971 199.11 720.631 198.984 723.924 198.73C727.218 198.477 730.3 198.35 733.171 198.35C738.491 198.35 743.178 199.068 747.231 200.504C751.369 201.855 754.662 204.05 757.111 207.09C759.56 210.13 760.869 214.141 761.038 219.124C761.206 223.43 760.489 227.188 758.884 230.397C757.364 233.606 755.211 236.266 752.424 238.377C749.722 240.488 746.682 242.092 743.304 243.19C740.011 244.204 736.718 244.71 733.424 244.71C732.58 244.71 731.609 244.668 730.511 244.584C729.498 244.499 728.484 244.33 727.471 244.077C727.218 243.992 727.133 243.697 727.218 243.19C727.302 242.599 727.513 242.346 727.851 242.43C728.526 242.599 729.286 242.726 730.131 242.81C730.975 242.895 731.651 242.937 732.158 242.937C734.606 242.937 736.844 242.177 738.871 240.657C740.898 239.137 742.544 236.815 743.811 233.69C745.078 230.566 745.711 226.681 745.711 222.037C745.711 217.561 745.078 213.804 743.811 210.764C742.544 207.639 740.686 205.275 738.238 203.67C735.789 201.981 732.749 201.137 729.118 201.137C727.598 201.137 726.373 201.348 725.444 201.77C724.6 202.192 723.966 202.995 723.544 204.177C723.206 205.359 723.038 207.048 723.038 209.244V267.13Z" fill="url(#paint0_linear_4858_18)"/>
<path d="M391.786 168.593C385.706 168.593 380.175 167.538 375.193 165.427C370.295 163.231 366.073 160.233 362.526 156.433C359.064 152.633 356.362 148.284 354.419 143.387C352.562 138.404 351.633 133.127 351.633 127.553C351.633 120.713 352.942 114.718 355.559 109.567C358.262 104.416 361.808 100.151 366.199 96.7734C370.591 93.3112 375.404 90.7356 380.639 89.0467C385.875 87.3578 391.068 86.5134 396.219 86.5134C402.468 86.5134 408.042 87.6534 412.939 89.9334C417.922 92.1289 422.144 95.1267 425.606 98.9267C429.068 102.727 431.686 107.033 433.459 111.847C435.317 116.66 436.246 121.6 436.246 126.667C436.246 132.578 435.064 138.067 432.699 143.133C430.335 148.2 427.084 152.633 422.946 156.433C418.893 160.233 414.164 163.231 408.759 165.427C403.439 167.538 397.782 168.593 391.786 168.593ZM395.966 165.427C400.695 165.427 404.917 164.076 408.633 161.373C412.348 158.671 415.262 154.702 417.373 149.467C419.568 144.231 420.666 137.856 420.666 130.34C420.666 122.571 419.484 115.647 417.119 109.567C414.755 103.487 411.377 98.7156 406.986 95.2534C402.595 91.7067 397.317 89.9334 391.153 89.9334C383.468 89.9334 377.557 92.8467 373.419 98.6734C369.282 104.5 367.213 112.564 367.213 122.867C367.213 129.031 367.931 134.731 369.366 139.967C370.802 145.118 372.786 149.636 375.319 153.52C377.937 157.32 380.977 160.276 384.439 162.387C387.986 164.413 391.828 165.427 395.966 165.427ZM466.813 156.307C466.813 158.84 467.066 160.782 467.573 162.133C468.164 163.4 469.346 164.287 471.119 164.793C472.893 165.3 475.511 165.553 478.973 165.553C479.226 165.553 479.353 165.807 479.353 166.313C479.353 166.82 479.226 167.073 478.973 167.073C476.271 167.073 473.315 167.031 470.106 166.947C466.982 166.862 463.562 166.82 459.846 166.82C456.806 166.82 453.893 166.862 451.106 166.947C448.404 167.031 445.955 167.073 443.76 167.073C443.506 167.073 443.38 166.82 443.38 166.313C443.38 165.807 443.506 165.553 443.76 165.553C446.377 165.553 448.32 165.342 449.586 164.92C450.853 164.498 451.697 163.653 452.12 162.387C452.542 161.12 452.753 159.262 452.753 156.813V98.1667C452.753 95.7178 452.542 93.9023 452.12 92.7201C451.697 91.4534 450.853 90.6089 449.586 90.1867C448.32 89.68 446.377 89.4267 443.76 89.4267C443.506 89.4267 443.38 89.1734 443.38 88.6667C443.38 88.16 443.506 87.9067 443.76 87.9067C445.955 87.9067 448.404 87.9912 451.106 88.16C453.808 88.2445 456.68 88.2867 459.719 88.2867C461.746 88.2867 464.406 88.16 467.7 87.9067C470.993 87.6534 474.075 87.5267 476.946 87.5267C482.266 87.5267 486.953 88.2445 491.006 89.6801C495.144 91.0312 498.437 93.2267 500.886 96.2667C503.335 99.3067 504.644 103.318 504.813 108.3C504.982 112.607 504.264 116.364 502.659 119.573C501.139 122.782 498.986 125.442 496.199 127.553C493.497 129.664 490.457 131.269 487.08 132.367C483.786 133.38 480.493 133.887 477.2 133.887C476.355 133.887 475.384 133.844 474.286 133.76C473.273 133.676 472.259 133.507 471.246 133.253C470.993 133.169 470.908 132.873 470.993 132.367C471.077 131.776 471.288 131.522 471.626 131.607C472.302 131.776 473.062 131.902 473.906 131.987C474.751 132.071 475.426 132.113 475.933 132.113C478.382 132.113 480.619 131.353 482.646 129.833C484.673 128.313 486.319 125.991 487.586 122.867C488.853 119.742 489.486 115.858 489.486 111.213C489.486 106.738 488.853 102.98 487.586 99.9401C486.319 96.8156 484.462 94.4511 482.013 92.8467C479.564 91.1578 476.524 90.3134 472.893 90.3134C471.373 90.3134 470.148 90.5245 469.22 90.9467C468.375 91.3689 467.742 92.1712 467.32 93.3534C466.982 94.5356 466.813 96.2245 466.813 98.4201V156.307ZM567.679 167.073H511.693C511.439 167.073 511.313 166.82 511.313 166.313C511.313 165.807 511.439 165.553 511.693 165.553C514.311 165.553 516.253 165.342 517.519 164.92C518.786 164.498 519.631 163.653 520.053 162.387C520.475 161.12 520.686 159.262 520.686 156.813V98.1667C520.686 95.7178 520.475 93.9023 520.053 92.7201C519.631 91.4534 518.786 90.6089 517.519 90.1867C516.253 89.68 514.311 89.4267 511.693 89.4267C511.439 89.4267 511.313 89.1734 511.313 88.6667C511.313 88.16 511.439 87.9067 511.693 87.9067H565.399C566.244 87.9067 566.666 88.2867 566.666 89.0467L566.919 105.893C566.919 106.062 566.708 106.189 566.286 106.273C565.864 106.358 565.568 106.273 565.399 106.02C564.048 101.038 561.768 97.4067 558.559 95.1267C555.35 92.7623 551.128 91.58 545.893 91.58H542.093C540.404 91.58 539.011 91.8334 537.913 92.34C536.815 92.7623 536.013 93.48 535.506 94.4934C534.999 95.5067 534.746 96.7734 534.746 98.2934V156.307C534.746 157.911 534.957 159.262 535.379 160.36C535.802 161.458 536.435 162.26 537.279 162.767C538.124 163.273 539.222 163.527 540.573 163.527H544.753C551.339 163.527 556.617 162.176 560.586 159.473C564.555 156.771 567.468 152.591 569.326 146.933C569.41 146.68 569.664 146.638 570.086 146.807C570.593 146.891 570.846 147.018 570.846 147.187C570.508 149.636 570.213 152.549 569.959 155.927C569.706 159.22 569.579 162.302 569.579 165.173C569.579 166.44 568.946 167.073 567.679 167.073ZM560.586 138.827C560.586 135.364 559.277 132.662 556.659 130.72C554.042 128.693 550.199 127.68 545.133 127.68H528.033V124.133H545.259C550.242 124.133 553.999 123.289 556.533 121.6C559.151 119.827 560.459 117.462 560.459 114.507C560.459 114.253 560.671 114.127 561.093 114.127C561.599 114.127 561.853 114.253 561.853 114.507C561.853 117.293 561.811 119.489 561.726 121.093C561.726 122.613 561.726 124.218 561.726 125.907C561.726 128.018 561.768 130.087 561.853 132.113C562.022 134.14 562.106 136.378 562.106 138.827C562.106 138.996 561.853 139.08 561.346 139.08C560.839 139.08 560.586 138.996 560.586 138.827ZM640.553 167.073C639.286 167.073 637.217 165.511 634.346 162.387C631.559 159.178 628.182 154.576 624.213 148.58C620.244 142.584 615.768 135.407 610.786 127.047L622.439 123.5C629.195 133.718 634.937 141.909 639.666 148.073C644.479 154.238 648.744 158.713 652.459 161.5C656.175 164.202 659.722 165.553 663.099 165.553C663.268 165.553 663.353 165.807 663.353 166.313C663.353 166.82 663.268 167.073 663.099 167.073C657.188 167.073 652.375 167.073 648.659 167.073C644.944 167.073 642.242 167.073 640.553 167.073ZM613.319 87.5267C621.088 87.5267 627.042 88.9623 631.179 91.8334C635.402 94.62 637.513 98.5467 637.513 103.613C637.513 108.596 636.119 113.029 633.333 116.913C630.546 120.713 626.957 123.669 622.566 125.78C618.259 127.891 613.699 128.947 608.886 128.947C607.704 128.947 606.479 128.947 605.213 128.947C604.031 128.947 602.933 128.904 601.919 128.82V156.813C601.919 159.262 602.131 161.12 602.553 162.387C602.975 163.653 603.819 164.498 605.086 164.92C606.353 165.342 608.295 165.553 610.913 165.553C611.082 165.553 611.166 165.807 611.166 166.313C611.166 166.82 611.082 167.073 610.913 167.073C608.717 167.073 606.268 167.031 603.566 166.947C600.864 166.862 597.908 166.82 594.699 166.82C591.659 166.82 588.746 166.862 585.959 166.947C583.257 167.031 580.808 167.073 578.613 167.073C578.359 167.073 578.233 166.82 578.233 166.313C578.233 165.807 578.359 165.553 578.613 165.553C581.231 165.553 583.173 165.342 584.439 164.92C585.706 164.498 586.551 163.653 586.973 162.387C587.479 161.12 587.733 159.262 587.733 156.813V98.1667C587.733 95.7178 587.522 93.9023 587.099 92.7201C586.677 91.4534 585.833 90.6089 584.566 90.1867C583.299 89.68 581.357 89.4267 578.739 89.4267C578.571 89.4267 578.486 89.1734 578.486 88.6667C578.486 88.16 578.571 87.9067 578.739 87.9067C580.935 87.9067 583.384 87.9912 586.086 88.16C588.788 88.2445 591.659 88.2867 594.699 88.2867C597.486 88.2867 600.526 88.16 603.819 87.9067C607.197 87.6534 610.364 87.5267 613.319 87.5267ZM623.073 108.427C623.073 103.444 622.566 99.6445 621.553 97.0267C620.539 94.4089 619.146 92.6356 617.373 91.7067C615.599 90.6934 613.573 90.1867 611.293 90.1867C607.915 90.1867 605.508 90.82 604.073 92.0867C602.637 93.3534 601.919 95.4645 601.919 98.4201V125.273C603.102 125.442 604.368 125.569 605.719 125.653C607.07 125.738 608.253 125.78 609.266 125.78C614.248 125.78 617.795 124.429 619.906 121.727C622.017 118.94 623.073 114.507 623.073 108.427ZM680.493 138.067L682.393 134.52H718.873L719.759 138.067H680.493ZM749.653 165.553C750.075 165.553 750.286 165.807 750.286 166.313C750.286 166.82 750.075 167.073 749.653 167.073C747.119 167.073 744.459 166.989 741.673 166.82C738.97 166.651 736.353 166.567 733.819 166.567C730.948 166.567 728.457 166.651 726.346 166.82C724.235 166.989 721.87 167.073 719.253 167.073C718.915 167.073 718.746 166.82 718.746 166.313C718.746 165.807 718.915 165.553 719.253 165.553C722.715 165.553 724.699 164.878 725.206 163.527C725.797 162.091 725.037 159.304 722.926 155.167L697.213 104.373L703.419 93.4801L678.213 149.087C675.933 154.153 675.89 158.164 678.086 161.12C680.282 164.076 683.744 165.553 688.473 165.553C688.895 165.553 689.106 165.807 689.106 166.313C689.106 166.82 688.895 167.073 688.473 167.073C685.939 167.073 683.617 166.989 681.506 166.82C679.395 166.651 676.735 166.567 673.526 166.567C670.233 166.567 667.573 166.651 665.546 166.82C663.604 166.989 661.197 167.073 658.326 167.073C657.988 167.073 657.819 166.82 657.819 166.313C657.819 165.807 657.988 165.553 658.326 165.553C660.606 165.553 662.548 165.089 664.153 164.16C665.842 163.147 667.488 161.373 669.093 158.84C670.782 156.222 672.682 152.549 674.793 147.82L702.279 87.4C702.364 87.1467 702.744 87.0201 703.419 87.0201C704.095 86.9356 704.475 87.0623 704.559 87.4L736.226 149.72C738.253 153.689 739.984 156.856 741.419 159.22C742.939 161.5 744.333 163.147 745.599 164.16C746.95 165.089 748.302 165.553 749.653 165.553ZM765.779 90.82C760.628 90.82 756.237 92.5512 752.606 96.0134C749.059 99.3912 746.23 104.204 744.119 110.453C744.035 110.707 743.781 110.833 743.359 110.833C742.937 110.749 742.726 110.58 742.726 110.327C742.895 109.144 743.064 107.498 743.233 105.387C743.402 103.191 743.57 100.827 743.739 98.2934C743.993 95.7601 744.162 93.3111 744.246 90.9467C744.415 88.5823 744.499 86.64 744.499 85.12C744.499 84.6978 744.71 84.4867 745.133 84.4867C745.639 84.4867 745.893 84.6978 745.893 85.12C745.893 85.9645 746.315 86.5978 747.159 87.0201C748.088 87.3578 749.101 87.6111 750.199 87.78C751.381 87.8645 752.353 87.9067 753.113 87.9067C760.375 88.16 768.861 88.2867 778.573 88.2867C784.484 88.2867 789.213 88.2445 792.759 88.16C796.306 87.9912 799.726 87.9067 803.019 87.9067C806.059 87.9067 808.339 87.7378 809.859 87.4C811.464 86.9778 812.477 86.0912 812.899 84.7401C812.984 84.4023 813.237 84.2334 813.659 84.2334C814.166 84.2334 814.419 84.4023 814.419 84.7401C814.25 86.0912 814.081 87.9912 813.913 90.4401C813.828 92.8045 813.701 95.3378 813.533 98.04C813.448 100.658 813.364 103.107 813.279 105.387C813.195 107.582 813.153 109.229 813.153 110.327C813.153 110.58 812.941 110.707 812.519 110.707C812.097 110.707 811.844 110.58 811.759 110.327C810.493 103.656 808.086 98.7578 804.539 95.6334C801.077 92.4245 796.855 90.82 791.873 90.82C790.184 90.82 788.875 91.0734 787.946 91.58C787.101 92.0023 786.51 92.7623 786.173 93.86C785.919 94.9578 785.793 96.4778 785.793 98.4201V156.813C785.793 159.262 786.046 161.12 786.553 162.387C787.059 163.653 788.03 164.498 789.466 164.92C790.986 165.342 793.266 165.553 796.306 165.553C796.559 165.553 796.686 165.807 796.686 166.313C796.686 166.82 796.559 167.073 796.306 167.073C793.941 167.073 791.281 167.031 788.326 166.947C785.37 166.862 782.119 166.82 778.573 166.82C775.195 166.82 772.028 166.862 769.073 166.947C766.117 167.031 763.415 167.073 760.966 167.073C760.713 167.073 760.586 166.82 760.586 166.313C760.586 165.807 760.713 165.553 760.966 165.553C763.921 165.553 766.159 165.342 767.679 164.92C769.199 164.498 770.213 163.653 770.719 162.387C771.31 161.12 771.606 159.262 771.606 156.813V98.1667C771.606 96.3089 771.437 94.8734 771.099 93.86C770.846 92.7623 770.297 92.0023 769.453 91.58C768.608 91.0734 767.384 90.82 765.779 90.82ZM844.859 156.813C844.859 159.262 845.07 161.12 845.493 162.387C845.915 163.653 846.759 164.498 848.026 164.92C849.293 165.342 851.235 165.553 853.853 165.553C854.106 165.553 854.232 165.807 854.232 166.313C854.232 166.82 854.106 167.073 853.853 167.073C851.657 167.073 849.208 167.031 846.506 166.947C843.804 166.862 840.848 166.82 837.639 166.82C834.599 166.82 831.686 166.862 828.899 166.947C826.113 167.031 823.621 167.073 821.426 167.073C821.257 167.073 821.173 166.82 821.173 166.313C821.173 165.807 821.257 165.553 821.426 165.553C824.044 165.553 825.986 165.342 827.253 164.92C828.604 164.498 829.49 163.653 829.912 162.387C830.419 161.12 830.673 159.262 830.673 156.813V98.1667C830.673 95.7178 830.419 93.9023 829.912 92.7201C829.49 91.4534 828.604 90.6089 827.253 90.1867C825.986 89.68 824.044 89.4267 821.426 89.4267C821.257 89.4267 821.173 89.1734 821.173 88.6667C821.173 88.16 821.257 87.9067 821.426 87.9067C823.621 87.9067 826.113 87.9912 828.899 88.16C831.686 88.2445 834.599 88.2867 837.639 88.2867C840.848 88.2867 843.804 88.2445 846.506 88.16C849.292 87.9912 851.741 87.9067 853.853 87.9067C854.106 87.9067 854.232 88.16 854.232 88.6667C854.232 89.1734 854.106 89.4267 853.853 89.4267C851.319 89.4267 849.377 89.68 848.026 90.1867C846.759 90.6934 845.915 91.58 845.493 92.8467C845.07 94.1134 844.859 95.9712 844.859 98.4201V156.813ZM872.513 150.987V90.82L876.313 91.0734V150.987C876.313 155.462 877.242 159.009 879.099 161.627C880.957 164.244 883.533 165.553 886.826 165.553C886.995 165.553 887.079 165.807 887.079 166.313C887.079 166.82 886.995 167.073 886.826 167.073C884.968 167.073 883.026 167.031 880.999 166.947C879.057 166.862 876.904 166.82 874.539 166.82C872.006 166.82 869.515 166.862 867.066 166.947C864.702 167.031 862.506 167.073 860.479 167.073C860.226 167.073 860.099 166.82 860.099 166.313C860.099 165.807 860.226 165.553 860.479 165.553C864.195 165.553 867.108 164.244 869.219 161.627C871.415 159.009 872.513 155.462 872.513 150.987ZM937.113 168.973C937.113 169.227 936.901 169.353 936.479 169.353C936.141 169.438 935.888 169.438 935.719 169.353L873.273 98.2934C870.233 94.8312 867.657 92.509 865.546 91.3267C863.435 90.0601 861.324 89.4267 859.213 89.4267C859.044 89.4267 858.959 89.1734 858.959 88.6667C858.959 88.16 859.044 87.9067 859.213 87.9067C860.902 87.9067 862.633 87.9489 864.406 88.0334C866.179 88.1178 867.826 88.16 869.346 88.16C872.386 88.16 875.13 88.1178 877.579 88.0334C880.028 87.9489 881.928 87.9067 883.279 87.9067C884.377 87.9067 885.179 88.4134 885.686 89.4267C886.277 90.3556 887.586 92.0445 889.613 94.4934L936.099 148.073L937.113 168.973ZM937.113 104.12V168.973L933.439 165.173V104.12C933.439 99.6445 932.51 96.0978 930.653 93.4801C928.795 90.7778 926.219 89.4267 922.926 89.4267C922.757 89.4267 922.673 89.1734 922.673 88.6667C922.673 88.16 922.757 87.9067 922.926 87.9067C924.784 87.9067 926.684 87.9912 928.626 88.16C930.653 88.2445 932.848 88.2867 935.213 88.2867C937.493 88.2867 939.73 88.2445 941.926 88.16C944.121 87.9912 946.148 87.9067 948.006 87.9067C948.175 87.9067 948.259 88.16 948.259 88.6667C948.259 89.1734 948.175 89.4267 948.006 89.4267C944.628 89.4267 941.968 90.7778 940.026 93.4801C938.084 96.0978 937.113 99.6445 937.113 104.12ZM999.853 168.593C992.422 168.593 985.793 167.538 979.966 165.427C974.139 163.316 969.199 160.402 965.146 156.687C961.093 152.971 958.01 148.664 955.899 143.767C953.788 138.869 952.733 133.633 952.733 128.06C952.733 121.896 953.957 116.28 956.406 111.213C958.855 106.147 962.317 101.798 966.793 98.1667C971.268 94.4512 976.504 91.58 982.499 89.5534C988.495 87.5267 995.039 86.5134 1002.13 86.5134C1006.1 86.5134 1010.11 86.8089 1014.17 87.4C1018.22 87.9912 1021.51 88.8356 1024.05 89.9334C1024.97 90.2711 1025.48 90.5667 1025.57 90.82C1025.73 90.9889 1025.86 91.6645 1025.95 92.8467L1027.59 110.453C1027.59 110.707 1027.38 110.876 1026.96 110.96C1026.54 111.044 1026.24 110.918 1026.07 110.58C1025.48 108.976 1024.43 106.991 1022.91 104.627C1021.47 102.178 1019.57 99.8134 1017.21 97.5334C1014.84 95.1689 1012.01 93.1845 1008.72 91.58C1005.43 89.9756 1001.63 89.1734 997.319 89.1734C991.915 89.1734 986.975 90.6512 982.499 93.6067C978.108 96.4778 974.604 100.616 971.986 106.02C969.368 111.424 968.059 117.884 968.059 125.4C968.059 131.48 968.904 137.011 970.593 141.993C972.366 146.976 974.815 151.324 977.939 155.04C981.148 158.671 984.864 161.5 989.086 163.527C993.308 165.469 997.953 166.44 1003.02 166.44C1006.23 166.44 1008.8 166.06 1010.75 165.3C1012.69 164.54 1014.08 163.062 1014.93 160.867C1015.85 158.671 1016.32 155.42 1016.32 151.113C1016.32 147.06 1016.07 144.104 1015.56 142.247C1015.14 140.304 1014.04 139.038 1012.27 138.447C1010.49 137.856 1007.62 137.56 1003.65 137.56C1003.15 137.56 1002.89 137.222 1002.89 136.547C1002.89 135.871 1003.1 135.533 1003.53 135.533C1009.44 135.871 1014.76 136.082 1019.49 136.167C1024.21 136.167 1029.2 136.04 1034.43 135.787C1034.77 135.787 1034.94 136.082 1034.94 136.673C1035.02 137.264 1034.85 137.56 1034.43 137.56C1033 137.476 1031.94 137.771 1031.27 138.447C1030.59 139.038 1030.17 140.389 1030 142.5C1029.83 144.611 1029.75 147.904 1029.75 152.38C1029.75 155.167 1029.83 157.236 1030 158.587C1030.17 159.938 1030.29 160.951 1030.38 161.627C1030.55 162.218 1030.63 162.851 1030.63 163.527C1030.63 164.033 1030.55 164.371 1030.38 164.54C1030.21 164.709 1029.83 164.878 1029.24 165.047C1024.59 166.06 1019.7 166.904 1014.55 167.58C1009.48 168.256 1004.58 168.593 999.853 168.593Z" fill="url(#paint1_linear_4858_18)"/>
<path d="M200.4 126.6L201 176.7C196.4 184.5 190.3 191.6 182.7 198C175.1 204.2 165.8 209.2 154.8 213C144 216.6 131.3 218.4 116.7 218.4C93.5 218.2 73.1 213.7 55.5 204.9C37.9 196.1 24.2 183.6 14.4 167.4C4.8 151 0 131.5 0 108.9C0 86.7 4.8 67.5 14.4 51.3C24 34.9 37.6 22.3 55.2 13.5C72.8 4.50001 93.7 0 117.9 0C133.5 0 147.5 1.80001 159.9 5.40001C172.3 8.80001 182.8 12.9 191.4 17.7L193.8 66H191.1C186.1 47 177.2 33.2 164.4 24.6C151.8 15.8 137 11.4 120 11.4C103.6 11.4 89.4 15.4 77.4 23.4C65.4 31.2 56.2 42.4 49.8 57C43.4 71.4 40.2 88.5 40.2 108.3C40.2 128.1 43.3 145.4 49.5 160.2C55.9 174.8 64.8 186.2 76.2 194.4C87.8 202.4 101.3 206.6 116.7 207C131.7 207 144.7 204.5 155.7 199.5C166.9 194.3 176 185.8 183 174C190.2 162.2 195.2 146.4 198 126.6H200.4Z" fill="url(#paint2_linear_4858_18)"/>
<path d="M307.2 221.707V271.207C302.6 277.207 295.8 283.207 286.8 289.207C278 295.207 267.3 300.207 254.7 304.207C242.1 308.007 227.8 309.907 211.8 309.907C189.8 309.707 170.4 305.207 153.6 296.407C136.8 287.407 123.7 274.807 114.3 258.607C105.1 242.207 100.5 222.807 100.5 200.407C100.5 178.407 105.1 159.207 114.3 142.807C123.7 126.407 136.8 113.807 153.6 105.007C170.6 96.0073 190.4 91.5073 213 91.5073C224 91.5073 234.4 92.3073 244.2 93.9073C254.2 95.5073 263.3 97.7073 271.5 100.507C279.9 103.107 287 106.007 292.8 109.207L295.2 157.507H292.5C288.9 144.507 283.5 134.107 276.3 126.307C269.3 118.307 260.9 112.407 251.1 108.607C241.3 104.807 230.7 102.907 219.3 102.907C202.7 102.907 188.5 107.007 176.7 115.207C165.1 123.207 156.2 134.607 150 149.407C143.8 164.007 140.7 181.407 140.7 201.607C140.7 221.207 143.6 238.307 149.4 252.907C155.4 267.307 163.9 278.507 174.9 286.507C186.1 294.307 199.3 298.307 214.5 298.507C222.5 298.507 230.1 297.407 237.3 295.207C244.5 293.007 251 289.807 256.8 285.607C262.8 281.207 267.5 276.007 270.9 270.007L271.2 221.707C271.2 212.707 266.1 208.207 255.9 208.207H251.1V205.207H326.7V208.207H322.2C311.8 208.207 306.8 212.707 307.2 221.707Z" fill="url(#paint3_linear_4858_18)"/>
<defs>
<linearGradient id="paint0_linear_4858_18" x1="48.5692" y1="-79.1759" x2="48.8664" y2="-79.1759" gradientUnits="userSpaceOnUse">
<stop stop-color="#3E6363"/>
</linearGradient>
<linearGradient id="paint1_linear_4858_18" x1="351.717" y1="180.581" x2="1011.24" y2="180.581" gradientUnits="userSpaceOnUse">
<stop stop-color="#13233F"/>
</linearGradient>
<linearGradient id="paint2_linear_4858_18" x1="-123.145" y1="29.1977" x2="-122.145" y2="29.1977" gradientUnits="userSpaceOnUse">
<stop stop-color="#13233F"/>
</linearGradient>
<linearGradient id="paint3_linear_4858_18" x1="-22.6447" y1="120.705" x2="-21.6447" y2="120.705" gradientUnits="userSpaceOnUse">
<stop stop-color="#3E6363"/>
</linearGradient>
</defs>
</svg>
