<svg width="327" height="310" viewBox="0 0 327 310" fill="none" xmlns="http://www.w3.org/2000/svg">
<path d="M200.4 126.6L201 176.7C196.4 184.5 190.3 191.6 182.7 198C175.1 204.2 165.8 209.2 154.8 213C144 216.6 131.3 218.4 116.7 218.4C93.5 218.2 73.1 213.7 55.5 204.9C37.9 196.1 24.2 183.6 14.4 167.4C4.8 151 0 131.5 0 108.9C0 86.7 4.8 67.5 14.4 51.3C24 34.9 37.6 22.3 55.2 13.5C72.8 4.50001 93.7 0 117.9 0C133.5 0 147.5 1.80001 159.9 5.40001C172.3 8.80001 182.8 12.9 191.4 17.7L193.8 66H191.1C186.1 47 177.2 33.2 164.4 24.6C151.8 15.8 137 11.4 120 11.4C103.6 11.4 89.4 15.4 77.4 23.4C65.4 31.2 56.2 42.4 49.8 57C43.4 71.4 40.2 88.5 40.2 108.3C40.2 128.1 43.3 145.4 49.5 160.2C55.9 174.8 64.8 186.2 76.2 194.4C87.8 202.4 101.3 206.6 116.7 207C131.7 207 144.7 204.5 155.7 199.5C166.9 194.3 176 185.8 183 174C190.2 162.2 195.2 146.4 198 126.6H200.4Z" fill="url(#paint0_linear_4858_22)"/>
<path d="M307.2 221.707V271.207C302.6 277.207 295.8 283.207 286.8 289.207C278 295.207 267.3 300.207 254.7 304.207C242.1 308.007 227.8 309.907 211.8 309.907C189.8 309.707 170.4 305.207 153.6 296.407C136.8 287.407 123.7 274.807 114.3 258.607C105.1 242.207 100.5 222.807 100.5 200.407C100.5 178.407 105.1 159.207 114.3 142.807C123.7 126.407 136.8 113.807 153.6 105.007C170.6 96.0073 190.4 91.5073 213 91.5073C224 91.5073 234.4 92.3073 244.2 93.9073C254.2 95.5073 263.3 97.7073 271.5 100.507C279.9 103.107 287 106.007 292.8 109.207L295.2 157.507H292.5C288.9 144.507 283.5 134.107 276.3 126.307C269.3 118.307 260.9 112.407 251.1 108.607C241.3 104.807 230.7 102.907 219.3 102.907C202.7 102.907 188.5 107.007 176.7 115.207C165.1 123.207 156.2 134.607 150 149.407C143.8 164.007 140.7 181.407 140.7 201.607C140.7 221.207 143.6 238.307 149.4 252.907C155.4 267.307 163.9 278.507 174.9 286.507C186.1 294.307 199.3 298.307 214.5 298.507C222.5 298.507 230.1 297.407 237.3 295.207C244.5 293.007 251 289.807 256.8 285.607C262.8 281.207 267.5 276.007 270.9 270.007L271.2 221.707C271.2 212.707 266.1 208.207 255.9 208.207H251.1V205.207H326.7V208.207H322.2C311.8 208.207 306.8 212.707 307.2 221.707Z" fill="url(#paint1_linear_4858_22)"/>
<defs>
<linearGradient id="paint0_linear_4858_22" x1="-123.145" y1="29.1977" x2="-122.145" y2="29.1977" gradientUnits="userSpaceOnUse">
<stop stop-color="#13233F"/>
</linearGradient>
<linearGradient id="paint1_linear_4858_22" x1="-22.6447" y1="120.705" x2="-21.6447" y2="120.705" gradientUnits="userSpaceOnUse">
<stop stop-color="#3E6363"/>
</linearGradient>
</defs>
</svg>
